<?xml version="1.0" standalone="no"?>
<!DOCTYPE svg PUBLIC "-//W3C//DTD SVG 20010904//EN"
 "http://www.w3.org/TR/2001/REC-SVG-20010904/DTD/svg10.dtd">
<svg version="1.0" xmlns="http://www.w3.org/2000/svg"
 width="1080.000000pt" height="1080.000000pt" viewBox="0 0 1080.000000 1080.000000"
 preserveAspectRatio="xMidYMid meet">

<g transform="translate(0.000000,1080.000000) scale(0.100000,-0.100000)"
fill="#000000" stroke="none">
<path d="M745 9630 c-3 -5 -24 -10 -46 -10 -21 0 -47 -4 -57 -9 -9 -5 -37 -15
-62 -22 -213 -62 -403 -277 -459 -521 -8 -34 -11 -846 -11 -2818 0 -2738 1
-2808 30 -2885 5 -11 14 -36 21 -55 27 -73 84 -155 163 -235 107 -108 198
-163 331 -198 58 -16 5902 -22 5931 -6 12 6 32 29 44 51 21 37 21 43 9 80 -26
80 209 72 -2353 76 -1260 2 -2297 5 -2303 7 -18 6 -19 5315 -1 5333 18 18
8501 17 8515 0 6 -8 9 -959 9 -2478 l-1 -2465 -23 -50 c-58 -129 -105 -193
-179 -248 -67 -48 -114 -74 -164 -87 -95 -26 -130 -115 -71 -181 26 -30 34
-32 88 -31 132 2 342 145 450 307 48 72 67 111 97 202 l22 68 0 2800 c0 2670
-1 2803 -18 2858 -39 125 -116 252 -196 322 -19 17 -47 41 -63 55 -27 24 -134
82 -183 100 -55 20 -94 30 -118 30 -15 0 -27 5 -27 10 0 7 -1568 10 -4684 10
-3113 0 -4687 -3 -4691 -10z m9426 -241 c95 -31 128 -51 194 -117 52 -52 79
-94 129 -201 7 -15 11 -97 11 -219 l0 -196 -30 -6 c-16 -3 -2307 -3 -5090 0
l-5060 5 -3 155 c-3 146 2 193 30 275 24 70 57 123 115 181 64 64 134 105 219
128 41 11 855 14 4735 15 l4686 1 64 -21z m-8432 -972 c8 -10 11 -727 11
-2673 l0 -2659 -22 -8 c-13 -5 -234 -7 -493 -4 -405 3 -478 6 -529 21 -186 53
-324 201 -369 396 -16 66 -21 4908 -6 4926 17 21 1391 21 1408 1z"/>
<path d="M682 9124 c-62 -32 -80 -111 -40 -170 24 -35 50 -52 83 -55 55 -4 76
3 110 36 31 32 35 41 35 88 0 45 -4 57 -28 80 -37 36 -112 45 -160 21z"/>
<path d="M1190 9133 c-30 -6 -57 -29 -76 -65 -42 -81 17 -169 112 -171 60 0
89 18 115 72 19 40 20 50 9 81 -14 38 -42 67 -78 81 -24 9 -39 10 -82 2z"/>
<path d="M1622 9097 c-27 -28 -32 -40 -32 -84 0 -56 21 -88 80 -118 61 -31
145 11 170 84 10 33 9 42 -9 82 -25 52 -55 69 -126 69 -45 0 -55 -4 -83 -33z"/>
<path d="M9803 9106 c-45 -21 -69 -78 -52 -126 6 -19 24 -45 38 -57 25 -22 34
-23 190 -23 l163 0 34 34 c45 45 47 96 5 146 l-29 35 -158 3 c-121 2 -167 -1
-191 -12z"/>
<path d="M647 8093 c-62 -32 -76 -121 -27 -176 l29 -34 264 -6 c337 -7 379 -3
418 35 54 54 35 148 -38 186 -35 19 -609 14 -646 -5z"/>
<path d="M633 7623 c-27 -5 -71 -55 -79 -89 -9 -35 13 -80 55 -114 l36 -30
383 0 c419 0 419 0 461 59 25 35 27 76 5 120 -30 61 -34 61 -456 60 -211 -1
-393 -4 -405 -6z"/>
<path d="M660 7143 c-8 -3 -27 -17 -42 -31 -24 -22 -28 -34 -28 -80 0 -48 4
-57 31 -83 l31 -29 270 0 c260 0 271 1 300 21 17 12 37 37 44 56 13 30 13 38
-4 77 -33 72 -50 76 -339 75 -136 0 -255 -3 -263 -6z"/>
<path d="M2466 8019 c-33 -38 -38 -89 -13 -137 24 -50 42 -52 388 -52 l322 0
32 24 c62 47 69 107 19 165 l-26 31 -348 0 -348 0 -26 -31z"/>
<path d="M3514 8019 c-24 -25 -29 -39 -29 -79 0 -41 5 -55 28 -77 l27 -28 390
-3 c432 -3 431 -3 470 61 30 48 24 78 -24 135 l-19 22 -407 0 -406 0 -30 -31z"/>
<path d="M4681 8021 c-25 -23 -31 -37 -31 -69 0 -57 14 -89 49 -107 42 -21
577 -23 619 -1 49 25 66 53 66 108 0 44 -4 54 -30 74 l-29 24 -306 0 -307 0
-31 -29z"/>
<path d="M2820 7508 c-19 -5 -53 -14 -75 -21 -139 -39 -278 -137 -386 -274
-53 -66 -113 -202 -132 -298 -13 -65 -13 -268 0 -325 24 -107 77 -223 138
-306 99 -132 275 -243 455 -286 83 -19 6749 -19 6830 0 65 16 162 49 193 65
55 30 168 112 199 145 75 81 147 206 173 297 9 33 21 74 26 91 13 43 11 274
-2 331 -37 152 -101 268 -208 374 -107 107 -181 149 -362 207 -46 15 -6795 15
-6849 0z m6807 -219 c27 -6 56 -15 65 -20 10 -5 23 -9 29 -9 23 0 138 -91 181
-142 43 -52 93 -146 117 -221 18 -56 17 -221 -3 -286 -58 -194 -166 -307 -361
-378 -48 -17 -185 -18 -3424 -16 -2548 2 -3382 5 -3410 14 -119 39 -210 103
-281 198 -63 84 -85 142 -100 261 -14 115 5 220 55 312 79 145 197 243 343
283 64 17 6715 21 6789 4z"/>
<path d="M9162 6987 c-13 -14 -22 -36 -22 -56 0 -27 11 -43 65 -94 36 -34 65
-69 65 -78 0 -9 -29 -42 -65 -74 -57 -49 -65 -61 -65 -92 0 -25 8 -43 29 -64
47 -46 72 -40 157 42 l73 71 69 -71 c79 -82 110 -90 156 -45 45 45 36 75 -44
156 -38 39 -70 74 -70 77 0 4 32 39 70 78 54 55 70 79 70 101 0 40 -33 72 -75
72 -29 0 -45 -10 -99 -65 -59 -59 -89 -77 -98 -57 -1 4 -31 33 -66 65 -72 65
-112 75 -150 34z"/>
<path d="M2604 5706 c-17 -14 -36 -42 -43 -64 -12 -37 -12 -43 9 -81 41 -71
48 -72 404 -69 297 3 315 4 336 23 47 42 62 104 38 147 -38 66 -48 68 -401 68
l-312 0 -31 -24z"/>
<path d="M3635 5718 c-51 -28 -65 -50 -65 -104 0 -43 5 -57 28 -81 l27 -30
285 -6 c157 -4 303 -4 325 -1 25 4 52 18 73 37 28 27 32 37 32 82 0 45 -4 55
-33 83 l-33 32 -309 0 c-207 -1 -317 -4 -330 -12z"/>
<path d="M4609 5715 c-55 -30 -76 -104 -45 -163 28 -55 41 -57 378 -57 l310 0
34 37 c27 30 34 46 34 79 0 36 -6 48 -40 81 l-41 38 -302 0 c-241 -1 -307 -4
-328 -15z"/>
<path d="M5589 5715 c-37 -20 -59 -58 -59 -104 0 -31 7 -46 35 -74 19 -19 49
-37 66 -41 59 -11 571 -6 609 7 68 24 100 111 61 170 -36 56 -46 57 -380 57
-244 -1 -311 -4 -332 -15z"/>
<path d="M6579 5707 c-35 -30 -49 -59 -49 -99 0 -50 32 -95 77 -107 23 -7 153
-11 322 -11 271 0 285 1 318 21 78 48 84 136 14 196 -26 23 -29 23 -341 23
-312 0 -315 0 -341 -23z"/>
<path d="M2618 5244 c-73 -39 -91 -145 -34 -199 36 -34 136 -47 179 -22 47 26
67 59 67 112 0 57 -17 88 -60 110 -36 19 -116 18 -152 -1z"/>
<path d="M3195 5255 c-5 -2 -26 -6 -46 -9 -20 -4 -49 -18 -63 -33 -35 -35 -37
-115 -3 -153 42 -48 59 -50 363 -50 312 0 323 2 363 59 29 40 28 108 -2 141
-42 47 -60 50 -340 49 -144 0 -266 -2 -272 -4z"/>
<path d="M4110 5238 c-39 -23 -70 -71 -70 -107 0 -24 11 -42 45 -76 l44 -45
298 1 c333 1 341 2 376 70 31 59 11 129 -48 162 -14 8 -111 12 -319 12 -260 0
-302 -2 -326 -17z"/>
<path d="M5100 5243 c-39 -20 -80 -75 -80 -108 0 -30 39 -85 75 -106 27 -16
63 -18 326 -18 l295 -1 42 35 c61 53 66 113 14 173 -28 32 -75 37 -377 40
-235 3 -263 1 -295 -15z"/>
<path d="M6182 5251 c-101 -6 -104 -7 -133 -39 -35 -39 -39 -91 -9 -139 36
-59 60 -63 384 -63 l292 0 41 35 c71 61 64 148 -15 193 -34 19 -52 20 -247 20
-115 -1 -256 -4 -313 -7z"/>
<path d="M7542 5008 c-18 -13 -35 -34 -39 -48 -4 -14 -8 -122 -8 -240 0 -193
2 -218 19 -242 26 -39 81 -54 127 -34 64 27 64 25 64 281 0 257 0 256 -68 290
-41 20 -57 19 -95 -7z"/>
<path d="M6892 4800 c-36 -22 -52 -54 -52 -103 0 -28 20 -51 171 -197 178
-171 200 -189 235 -190 34 0 83 30 99 60 20 38 19 59 -3 95 -23 37 -310 323
-343 341 -34 19 -69 17 -107 -6z"/>
<path d="M8045 4667 c-206 -211 -205 -209 -205 -265 0 -55 24 -86 79 -102 59
-17 74 -5 307 241 109 115 123 142 97 197 -21 45 -49 62 -102 62 -45 0 -47 -1
-176 -133z"/>
<path d="M2603 4743 c-45 -41 -57 -80 -39 -125 9 -20 29 -46 45 -57 28 -20 41
-21 345 -21 351 0 346 -1 385 66 30 51 26 77 -17 124 l-39 40 -324 0 -325 0
-31 -27z"/>
<path d="M3630 4763 c-37 -14 -80 -75 -80 -115 0 -27 39 -82 69 -96 18 -9 116
-12 342 -12 l316 0 26 24 c14 13 33 40 41 60 13 31 13 40 1 70 -8 19 -28 44
-44 55 -28 20 -40 21 -343 20 -172 0 -320 -3 -328 -6z"/>
<path d="M4606 4749 c-31 -24 -56 -69 -56 -99 0 -29 38 -84 69 -98 18 -9 113
-12 329 -12 345 0 344 0 376 81 16 39 16 43 -4 84 -11 23 -32 47 -46 53 -17 8
-122 12 -333 12 -298 0 -309 -1 -335 -21z"/>
<path d="M5569 4731 c-46 -46 -51 -86 -17 -134 41 -58 29 -56 366 -57 343 0
346 0 378 61 25 48 18 93 -20 133 l-33 36 -318 0 -317 0 -39 -39z"/>
<path d="M2578 4261 c-30 -26 -32 -34 -32 -86 1 -65 19 -90 81 -111 107 -38
203 18 203 119 0 39 -5 49 -35 76 -33 29 -41 31 -110 31 -68 0 -77 -3 -107
-29z"/>
<path d="M3113 4270 c-17 -10 -37 -28 -42 -39 -25 -46 -5 -132 34 -149 11 -5
32 -15 47 -22 21 -10 91 -12 306 -8 302 6 335 12 362 63 17 32 18 97 1 128
-24 44 -44 47 -369 47 -286 0 -309 -1 -339 -20z"/>
<path d="M4098 4275 c-29 -16 -58 -66 -58 -100 0 -30 39 -85 75 -106 27 -16
62 -18 316 -18 315 -1 339 3 378 58 13 18 21 45 21 71 0 36 -6 48 -36 76 l-35
34 -317 0 c-258 -1 -322 -4 -344 -15z"/>
<path d="M5098 4274 c-62 -33 -77 -123 -29 -171 45 -45 96 -52 382 -49 234 2
259 4 295 23 45 23 64 53 64 102 0 26 -9 42 -39 72 l-39 39 -303 0 c-249 -1
-309 -3 -331 -16z"/>
<path d="M6627 4209 c-34 -28 -37 -34 -37 -84 0 -46 4 -56 32 -84 l32 -31 236
0 c233 0 237 0 257 23 46 50 54 92 27 146 -27 54 -60 61 -298 61 l-211 0 -38
-31z"/>
<path d="M7480 4218 c-74 -43 -79 -79 -40 -283 18 -93 28 -150 39 -205 5 -30
12 -66 15 -80 3 -14 15 -83 27 -155 12 -71 26 -150 30 -175 5 -25 13 -70 19
-100 9 -54 21 -113 40 -207 5 -27 14 -73 20 -103 5 -30 14 -75 19 -100 14 -69
61 -328 71 -390 9 -56 24 -138 41 -220 5 -25 14 -72 20 -105 12 -70 26 -141
38 -205 5 -25 14 -72 20 -105 16 -95 39 -216 51 -270 12 -51 22 -101 39 -190
19 -96 22 -102 63 -124 55 -29 122 -28 162 3 17 13 47 55 66 92 19 38 37 71
40 74 3 3 57 110 120 237 63 128 120 233 126 233 6 0 33 -33 59 -72 27 -40 52
-75 55 -78 11 -9 140 -200 140 -207 0 -4 7 -15 17 -25 9 -10 21 -27 27 -37 6
-11 65 -100 131 -198 66 -98 121 -184 123 -190 3 -10 35 -13 119 -13 100 0
117 2 131 19 14 15 232 164 419 285 33 21 73 90 73 125 0 11 -37 76 -82 144
-46 68 -87 131 -93 139 -11 18 -220 316 -250 358 -92 128 -205 302 -201 309 3
5 22 11 43 14 32 5 175 30 388 68 28 5 73 14 100 19 28 6 75 13 105 17 71 8
129 41 157 89 26 45 29 84 8 123 -14 28 -73 81 -105 94 -8 4 -85 52 -170 108
-85 56 -175 113 -200 127 -25 14 -64 38 -87 53 -23 16 -46 29 -51 29 -5 0 -16
7 -23 16 -7 9 -22 20 -34 25 -11 5 -69 40 -128 79 -60 38 -111 70 -113 70 -4
0 -119 73 -176 112 -15 10 -29 18 -32 18 -2 0 -37 22 -78 48 -71 48 -263 167
-323 202 -16 9 -63 38 -103 63 -40 26 -75 47 -78 47 -2 0 -38 23 -79 50 -41
28 -77 50 -80 50 -3 0 -28 16 -55 35 -27 19 -52 35 -56 35 -3 0 -25 14 -49 30
-24 17 -46 30 -49 30 -4 0 -45 25 -91 55 -47 30 -89 55 -94 55 -5 0 -14 7 -21
15 -21 25 -113 65 -149 64 -20 0 -52 -10 -71 -21z m255 -328 c24 -16 46 -30
48 -30 6 0 213 -125 247 -150 16 -11 31 -20 34 -20 3 0 51 -29 106 -65 55 -36
105 -65 110 -65 6 0 10 -4 10 -10 0 -5 5 -10 11 -10 6 0 30 -13 54 -30 24 -16
46 -30 49 -30 3 0 20 -10 39 -22 18 -13 71 -47 118 -76 46 -29 131 -82 187
-117 57 -36 107 -65 112 -65 4 0 14 -7 21 -16 7 -9 22 -20 34 -25 11 -5 49
-27 84 -49 34 -22 65 -40 68 -40 2 0 30 -17 61 -38 51 -34 152 -97 277 -172
97 -58 215 -135 215 -141 0 -9 -139 -38 -330 -69 -30 -4 -68 -11 -85 -15 -16
-3 -52 -10 -80 -15 -27 -5 -79 -14 -115 -21 -86 -16 -114 -31 -134 -73 -28
-59 -26 -64 64 -191 30 -43 60 -85 65 -94 6 -9 34 -50 63 -91 28 -41 112 -163
186 -270 74 -107 152 -219 173 -248 21 -30 43 -61 48 -70 6 -10 23 -36 38 -59
15 -24 27 -44 27 -47 0 -3 -151 -105 -209 -141 -9 -5 -37 -25 -63 -43 -26 -17
-51 -32 -56 -32 -10 0 -72 75 -72 88 0 5 -9 17 -20 27 -11 10 -20 22 -20 26 0
4 -21 37 -47 73 -27 35 -88 124 -138 197 -49 72 -94 137 -100 143 -5 6 -30 40
-54 76 -24 36 -67 99 -96 140 -29 41 -64 93 -79 115 -38 57 -65 75 -112 75
-31 0 -46 -6 -67 -28 -15 -15 -27 -31 -27 -35 0 -3 -21 -50 -46 -104 -74 -156
-137 -291 -179 -385 -22 -48 -43 -87 -46 -88 -10 0 -17 31 -48 213 -23 132
-32 182 -57 322 -14 83 -30 170 -35 195 -20 106 -28 149 -39 210 -6 36 -16 88
-21 115 -5 28 -14 73 -19 100 -5 28 -14 73 -19 100 -5 28 -14 79 -20 115 -6
36 -18 99 -26 140 -9 41 -20 102 -26 135 -14 77 -34 181 -60 310 -5 28 -14 73
-18 100 -5 28 -14 79 -21 115 -6 36 -15 85 -19 110 -5 25 -9 50 -11 55 -9 34
10 33 65 -5z"/>
<path d="M6979 3710 c-79 -82 -150 -162 -156 -177 -15 -34 -8 -91 15 -116 9
-10 31 -25 49 -32 51 -22 84 -1 213 132 126 130 142 148 171 199 27 49 24 68
-16 109 -31 30 -42 35 -84 35 l-48 0 -144 -150z"/>
<path d="M2607 3799 c-41 -31 -61 -85 -46 -124 36 -90 56 -95 394 -95 303 0
336 5 369 52 10 13 16 43 16 73 0 45 -4 55 -33 83 l-33 32 -319 0 c-308 -1
-321 -1 -348 -21z"/>
<path d="M3606 3786 c-32 -29 -36 -39 -36 -82 0 -58 27 -96 79 -113 48 -16
551 -15 603 1 53 16 88 62 88 116 0 34 -6 48 -35 77 l-36 35 -314 0 -314 0
-35 -34z"/>
<path d="M7355 3044 c20 -15 61 -12 80 7 5 5 -12 9 -45 9 -51 -1 -54 -2 -35
-16z"/>
</g>
</svg>
